<?xml version="1.0" encoding="UTF-8"?>
<svg version="1.1" xmlns="http://www.w3.org/2000/svg" width="500" height="273">
<path d="M0 0 C4.55770223 0.53735479 7.73256461 2.50183763 11.4375 5.04296875 C12.04005615 5.44904861 12.6426123 5.85512848 13.26342773 6.27351379 C14.53351346 7.13279768 15.80080244 7.99622817 17.06542969 8.86352539 C18.98575967 10.17775425 20.91771961 11.4733417 22.8515625 12.76757812 C24.08928912 13.6082756 25.32629255 14.45003899 26.5625 15.29296875 C27.13347412 15.67446579 27.70444824 16.05596283 28.29272461 16.44902039 C34.03743608 20.42668863 37.99595873 24.69602723 40.0625 31.484375 C40.38476562 32.50273438 40.70703125 33.52109375 41.0390625 34.5703125 C41.51472656 36.14425781 41.51472656 36.14425781 42 37.75 C44.14550278 44.74468794 46.49040911 51.16979261 49.88427734 57.65429688 C51.60574436 61.27352119 52.44625003 64.97919355 53.3125 68.875 C55.24834302 76.88610359 57.96011398 84.33581046 61.13037109 91.93457031 C63.00955944 96.45633953 64.64153172 100.89293233 65.9375 105.625 C67.74904229 112.02743714 70.7451314 117.69784917 74.00366211 123.47119141 C76.69972597 128.47792567 78.32332852 133.28237363 77 139 C74 141.5625 74 141.5625 71 143 C71.886875 143.556875 72.77375 144.11375 73.6875 144.6875 C76.84279378 146.77853792 79.39868111 149.24566235 82 152 C82.33 149.03 82.66 146.06 83 143 C90.59 143 98.18 143 106 143 C106.06814451 153.93666893 106.12302698 164.87319371 106.15543652 175.81002808 C106.17100207 180.89003473 106.19207103 185.9698869 106.22631836 191.04980469 C106.25924036 195.96465545 106.27692125 200.87935889 106.28463173 205.79431152 C106.29011695 207.65672113 106.30082552 209.51912394 106.31719017 211.38146973 C106.58904263 243.64211724 106.58904263 243.64211724 96.47265625 254.6640625 C87.30272713 263.42404185 75.87783972 264.19881518 63.875 264.25 C62.09609375 264.2809375 62.09609375 264.2809375 60.28125 264.3125 C49.13591267 264.36170679 39.56566301 262.51947516 31 255 C26.15758837 249.50650781 24.66517281 245.18084287 24 238 C28.10379698 237.85510766 32.20693967 237.76606458 36.3125 237.6875 C38.06336914 237.6246582 38.06336914 237.6246582 39.84960938 237.56054688 C40.96787109 237.54443359 42.08613281 237.52832031 43.23828125 237.51171875 C44.7857605 237.47244263 44.7857605 237.47244263 46.36450195 237.43237305 C49 238 49 238 50.75415039 240.44995117 C51.16528076 241.29146729 51.57641113 242.1329834 52 243 C55.51024532 245.66908054 59.63785721 245.36722543 63.875 245.375 C64.56980469 245.39949219 65.26460938 245.42398438 65.98046875 245.44921875 C71.14760465 245.47841161 74.06937369 244.30690417 78 241 C81.51378671 234.44093147 81.32953654 228.32303413 81 221 C80.5875 221.39832031 80.175 221.79664063 79.75 222.20703125 C71.96156861 229.35222166 65.18367023 230.59877533 54.75390625 230.33984375 C44.78648314 229.43748599 37.62291674 225.44916756 31 218 C21.5772201 205.93801698 20.70581087 190.80747865 22.31640625 176.11328125 C24.53074507 163.4057693 30.38620211 152.54076064 41 145 C47.68529557 141.10024425 55.43589606 140.82747598 63 140 C62.030625 139.195625 61.06125 138.39125 60.0625 137.5625 C55.57318915 133.12771519 53.0885036 127.82065997 50.27001953 122.25854492 C48.02672009 117.85660788 45.68448424 114.01074975 42.55078125 110.1796875 C38.76285242 104.8555961 35.97726375 98.80339736 33 93 C32.40574219 93.83660156 31.81148438 94.67320313 31.19921875 95.53515625 C28.96088811 98.68170886 26.71380088 101.82190867 24.46289062 104.95947266 C23.50429998 106.29657222 22.54721217 107.63475076 21.59179688 108.97412109 C13.27718777 120.6128197 4.23569232 130.98208837 -6 141 C-5.29875 141.14695313 -4.5975 141.29390625 -3.875 141.4453125 C3.85540851 143.2728819 10.08718855 145.5327206 14.56640625 152.40234375 C18.09265657 159.0831314 19.12843663 165.01106314 19.11352539 172.55615234 C19.11341209 174.47746475 19.11341209 174.47746475 19.11329651 176.43759155 C19.10819105 177.82037394 19.10297508 179.20315592 19.09765625 180.5859375 C19.09578917 182.01225739 19.09436664 183.43857792 19.09336853 184.86489868 C19.08956615 188.60326942 19.07975552 192.34160078 19.06866455 196.07995605 C19.05840124 199.90095487 19.0538604 203.7219601 19.04882812 207.54296875 C19.03813103 215.02866579 19.02055289 222.51432234 19 230 C11.08 230 3.16 230 -5 230 C-5.01458252 228.27966553 -5.02916504 226.55933105 -5.04418945 224.78686523 C-5.09597567 219.08304047 -5.16129744 213.37947649 -5.23571491 207.67590237 C-5.28031496 204.22007548 -5.31959312 200.76436366 -5.34643555 197.30834961 C-5.37758136 193.32901187 -5.43236658 189.35016351 -5.48828125 185.37109375 C-5.49467117 184.13854355 -5.5010611 182.90599335 -5.50764465 181.63609314 C-5.61465059 175.36156019 -5.8491043 170.49588275 -9 165 C-12.09481183 162.09275252 -14.83373421 161.77904526 -18.9375 161.625 C-23.29972456 161.77430233 -26.36302003 162.42750197 -30 165 C-35.56338069 172.15291802 -35.32522065 180.63881043 -35.4140625 189.27734375 C-35.43342865 190.4438295 -35.4527948 191.61031525 -35.4727478 192.81214905 C-35.53230104 196.52052608 -35.57883229 200.22893456 -35.625 203.9375 C-35.66320206 206.45899756 -35.70225508 208.98048238 -35.7421875 211.50195312 C-35.8395766 217.66790069 -35.91933954 223.8337203 -36 230 C-43.59 230 -51.18 230 -59 230 C-59 201.29 -59 172.58 -59 143 C-51.74 143 -44.48 143 -37 143 C-36.67 146.3 -36.34 149.6 -36 153 C-35.175 151.9275 -34.35 150.855 -33.5 149.75 C-29.12363839 144.63907179 -23.70180333 141.83772542 -17 141 C-17.33 140.01 -17.66 139.02 -18 138 C-18.78556757 128.88741615 -15.30462544 122.29385999 -10 115 C-9.34 114.29875 -8.68 113.5975 -8 112.875 C-5.44210041 109.19801934 -4.44132577 105.49149234 -3.16015625 101.22265625 C-1.9739974 97.92777057 -0.40635218 95.34083829 1.4375 92.375 C5.57109348 84.52324957 3.49726874 76.16170686 1 68 C-0.89570347 63.11884736 -2.4386615 61.28173624 -7.1875 59.125 C-15.231367 55.05000669 -22.71915338 48.07808295 -27 40 C-26.67 39.01 -26.34 38.02 -26 37 C-22.15199654 38.28266782 -21.53560071 39.84608494 -19.3125 43.1875 C-15.22211794 48.95732726 -11.11101003 53.11776896 -4.63671875 56.08203125 C0.21357516 58.32856673 2.49425975 60.03212128 4.4375 65.125 C7.37273558 75.05655052 10.13528186 84.66735933 5.078125 94.140625 C4.25258451 95.56438323 3.35890431 96.94882163 2.4375 98.3125 C0.97408886 101.04844257 0.43271042 103.30029886 -0.25 106.3125 C-1.56404581 111.49915699 -3.62602703 114.30326173 -7.28515625 118.109375 C-12.30726514 123.64627865 -13.66183654 129.69566935 -14 137 C-13.34 137 -12.68 137 -12 137 C-11.278125 136.21625 -10.55625 135.4325 -9.8125 134.625 C-7 132 -7 132 -3.75 131.3125 C5.30603563 128.14288753 10.82521991 117.60005007 15.96142578 109.90380859 C19.17629827 105.09915148 22.63217878 100.6799024 26.5390625 96.40625 C30.55421731 89.79305383 29.28736739 79.5726392 29.4296875 72.04492188 C29.61916129 66.32518178 30.20046446 62.03779501 33 57 C35.1875 56.0625 35.1875 56.0625 37 56 C36.68289062 56.72574219 36.36578125 57.45148437 36.0390625 58.19921875 C34.35891557 62.72803586 34.2553485 67.20512258 34 72 C33.86658203 73.95873047 33.86658203 73.95873047 33.73046875 75.95703125 C33.36585237 83.32488654 33.43994792 88.83971305 38.2890625 94.79296875 C40.31060222 97.40066268 41.5958316 100.07957084 43 103.0625 C45.09902428 107.38561995 47.36932423 110.99290529 50.359375 114.73046875 C52.93250453 118.28996459 55.00708198 122.13974048 57.10888672 125.98974609 C60.988566 133.24485512 60.988566 133.24485512 67.75 137.3125 C69.35875 137.6528125 69.35875 137.6528125 71 138 C71.15846758 135.93582888 71.15846758 135.93582888 69.98046875 134.11328125 C69 132 69 132 69.3125 128.1875 C69.45350604 122.79401914 67.19907806 118.69910421 64.84545898 114.01147461 C61.95835453 108.17866999 60.09147091 102.30343767 58.3359375 96.046875 C57.35403766 92.78847116 56.01489971 89.80870732 54.55859375 86.734375 C51.94613901 81.12193533 50.27879545 75.46846402 48.6875 69.5 C46.28427816 60.85283066 43.43754477 52.66202365 39.76367188 44.4753418 C37.75093671 39.95987793 36.32894145 35.64423275 35.1875 30.8125 C33.0257538 23.43274572 28.35761665 20.81911656 22 17 C20.05998387 15.72665783 18.13590685 14.43130999 16.2121582 13.13354492 C14.34218301 11.87456324 12.46152158 10.63330764 10.578125 9.39453125 C9.38406321 8.59838035 8.19138086 7.80015715 7 7 C6.00516602 6.33556885 6.00516602 6.33556885 4.99023438 5.65771484 C3.28968659 4.49083143 1.63977151 3.25085134 0 2 C0 1.34 0 0.68 0 0 Z M73 131 C74 134 74 134 74 134 Z M-8 136 C-8.33 136.66 -8.66 137.32 -9 138 C-8.01 137.67 -7.02 137.34 -6 137 C-6.66 136.67 -7.32 136.34 -8 136 Z M52 166 C46.26447579 173.90572256 44.88775715 183.53406985 46.3125 193.09765625 C47.67868852 199.42847627 49.89930568 204.36145843 55.125 208.4375 C59.60521961 210.67279236 64.11214967 210.65548986 69 210 C74.7967464 208.03129368 78.23935985 204.281193 81.1171875 198.91796875 C82.40195993 194.67139794 82.36850486 190.60094487 82.375 186.1875 C82.41173828 184.89102539 82.41173828 184.89102539 82.44921875 183.56835938 C82.47929207 176.92716753 81.20207297 171.37126893 76.5168457 166.43847656 C71.70862015 162.24939645 67.72192953 161.63688878 61.5703125 161.7265625 C57.36720656 162.17370143 55.35766271 163.38102308 52 166 Z " fill="#000000" transform="translate(161,4)"/>
<path d="M0 0 C8.64177517 7.61017383 13.26825966 17.52689092 14.99609375 28.7578125 C14.99609375 33.7078125 14.99609375 38.6578125 14.99609375 43.7578125 C-5.46390625 43.7578125 -25.92390625 43.7578125 -47.00390625 43.7578125 C-44.82595839 54.00964355 -44.82595839 54.00964355 -38.12890625 61.1328125 C-32.68200325 63.96283384 -25.93513255 63.53602304 -20.00390625 62.7578125 C-17.25431107 61.31627582 -17.25431107 61.31627582 -15.00390625 59.7578125 C-14.34390625 59.7578125 -13.68390625 59.7578125 -13.00390625 59.7578125 C-12.71515625 59.1390625 -12.42640625 58.5203125 -12.12890625 57.8828125 C-11.00390625 55.7578125 -11.00390625 55.7578125 -9.00390625 53.7578125 C-6.66552734 53.53076172 -6.66552734 53.53076172 -3.77734375 53.5625 C-2.23046875 53.57216797 -2.23046875 53.57216797 -0.65234375 53.58203125 C0.42789063 53.59878906 1.508125 53.61554688 2.62109375 53.6328125 C3.7090625 53.64183594 4.79703125 53.65085938 5.91796875 53.66015625 C8.61089527 53.68377841 11.3033863 53.71671694 13.99609375 53.7578125 C12.85652151 62.78270071 8.07662205 69.6646639 1.04296875 75.296875 C-9.08154052 82.52314688 -21.99134241 85.07511781 -34.2109375 83.2890625 C-46.33697411 81.08193991 -56.18504559 76.50359617 -64.00390625 66.7578125 C-71.9827532 55.05876697 -72.36826102 39.6678933 -70.5 26.09765625 C-68.13697195 14.55257636 -63.16425208 6.24603171 -54.00390625 -1.2421875 C-37.83214685 -11.53103133 -15.6618013 -11.43742553 0 0 Z M-42.00390625 15.7578125 C-44.55336634 19.59774004 -45.88761489 23.29264706 -47.00390625 27.7578125 C-34.46390625 27.7578125 -21.92390625 27.7578125 -9.00390625 27.7578125 C-11.92209767 18.41806505 -11.92209767 18.41806505 -18.73828125 12.65234375 C-26.1776041 9.71509387 -35.96848343 10.50961875 -42.00390625 15.7578125 Z " fill="#000000" transform="translate(344.00390625,153.2421875)"/>
<path d="M0 0 C0.82717529 0.00161133 1.65435059 0.00322266 2.5065918 0.00488281 C12.84954568 0.20955471 22.71178947 2.60650638 30.390625 9.8671875 C35.835355 15.60265551 37.8125 21.52995318 37.8125 29.375 C30.2225 29.375 22.6325 29.375 14.8125 29.375 C13.4925 26.735 12.1725 24.095 10.8125 21.375 C7.27465538 19.16966594 3.92998193 19.07825567 -0.1875 19.0625 C-1.198125 19.04574219 -2.20875 19.02898437 -3.25 19.01171875 C-6.61776478 19.42821094 -8.48390191 20.35212929 -11.1875 22.375 C-12.34224612 24.81310155 -12.34224612 24.81310155 -12.1875 27.375 C-9.73441065 30.87957215 -6.43684241 31.30189941 -2.4296875 32.2421875 C-1.06768945 32.57414127 0.29428908 32.90617516 1.65625 33.23828125 C3.78783418 33.74433729 5.92037799 34.24599802 8.05371094 34.74462891 C18.42128072 37.18789535 28.17473457 39.48733713 35.3125 48 C35.9621875 48.75539062 36.611875 49.51078125 37.28125 50.2890625 C41.4066791 55.90890724 40.39427422 63.74143652 39.8125 70.375 C37.50790277 78.31190885 32.80765168 83.41708665 25.8203125 87.5546875 C12.58347908 94.1973475 -4.75346882 93.95826331 -18.66796875 89.59765625 C-26.53501638 86.44271288 -33.19280559 80.90346254 -37.1875 73.375 C-38.74002004 68.86020035 -39.1875 65.20171894 -39.1875 60.375 C-31.2675 60.375 -23.3475 60.375 -15.1875 60.375 C-14.1975 63.675 -13.2075 66.975 -12.1875 70.375 C-7.48620248 72.7313681 -2.76838633 72.64620524 2.4375 72.625 C3.70851563 72.63015625 4.97953125 72.6353125 6.2890625 72.640625 C9.63614615 72.38829497 11.88944652 71.99952228 14.8125 70.375 C15.97698881 67.47148876 15.97698881 67.47148876 15.8125 64.375 C13.41171684 60.87570352 9.62759008 60.126929 5.75 59 C5.05189209 58.78722412 4.35378418 58.57444824 3.63452148 58.35522461 C-0.1997625 57.20082109 -4.04930485 56.140382 -7.9296875 55.15234375 C-19.12715389 52.27885243 -28.30275041 49.27182754 -35.1875 39.375 C-37.3748864 32.78461645 -37.18332613 24.87289956 -34.5 18.5 C-30.41146242 10.64831018 -25.21204351 6.10108174 -17.1875 2.375 C-11.379294 0.59623691 -6.05918049 -0.01239223 0 0 Z " fill="#000000" transform="translate(452.1875,144.625)"/>
<path d="M0 0 C4.021875 0.0309375 4.021875 0.0309375 8.125 0.0625 C8.455 6.6625 8.785 13.2625 9.125 20.0625 C5.165 20.3925 1.205 20.7225 -2.875 21.0625 C-5.18449223 25.93870311 -5.18449223 25.93870311 -4.875 31.0625 C2.055 31.5575 2.055 31.5575 9.125 32.0625 C9.125 37.6725 9.125 43.2825 9.125 49.0625 C4.505 49.3925 -0.115 49.7225 -4.875 50.0625 C-4.86976318 52.08689209 -4.86452637 54.11128418 -4.85913086 56.19702148 C-4.84259312 62.87062019 -4.83152804 69.54421978 -4.82318783 76.21783352 C-4.81795959 80.26575742 -4.81086301 84.31366041 -4.79956055 88.36157227 C-4.78872957 92.26485971 -4.78272272 96.16812699 -4.78012276 100.0714283 C-4.77826889 101.56383647 -4.774649 103.05624348 -4.76926994 104.54864311 C-4.76205669 106.63198139 -4.76100917 108.71523531 -4.76147461 110.79858398 C-4.759254 111.98661118 -4.75703339 113.17463837 -4.75474548 114.39866638 C-4.875 117.0625 -4.875 117.0625 -5.875 118.0625 C-13.465 118.0625 -21.055 118.0625 -28.875 118.0625 C-28.875 95.2925 -28.875 72.5225 -28.875 49.0625 C-32.835 49.0625 -36.795 49.0625 -40.875 49.0625 C-40.875 43.4525 -40.875 37.8425 -40.875 32.0625 C-36.915 32.0625 -32.955 32.0625 -28.875 32.0625 C-28.90980469 31.15628906 -28.94460937 30.25007813 -28.98046875 29.31640625 C-29.17864266 20.39858036 -29.35276978 12.45259021 -23 5.625 C-16.45815601 -0.20787568 -8.32548944 -0.09100216 0 0 Z " fill="#000000" transform="translate(48.875,115.9375)"/>
<path d="M0 0 C0 7.92 0 15.84 0 24 C-2.000625 24.103125 -4.00125 24.20625 -6.0625 24.3125 C-12.62828621 24.82634414 -16.94331902 25.76944902 -22.3125 29.6875 C-26.83778008 35.88880974 -26.33169815 44.15198012 -26.4140625 51.5 C-26.43342865 52.57628662 -26.4527948 53.65257324 -26.4727478 54.76147461 C-26.53217541 58.17423765 -26.57878126 61.58703509 -26.625 65 C-26.66321367 67.32423286 -26.70226734 69.64845207 -26.7421875 71.97265625 C-26.83941589 77.64836351 -26.91927757 83.32393834 -27 89 C-34.92 89 -42.84 89 -51 89 C-51 60.29 -51 31.58 -51 2 C-43.41 2 -35.82 2 -28 2 C-27.67 5.63 -27.34 9.26 -27 13 C-26.49210937 12.38511719 -25.98421875 11.77023438 -25.4609375 11.13671875 C-17.57296862 1.87500249 -12.15013493 0 0 0 Z " fill="#000000" transform="translate(413,145)"/>
<path d="M0 0 C7.59 0 15.18 0 23 0 C23 28.71 23 57.42 23 87 C15.41 87 7.82 87 0 87 C0 58.29 0 29.58 0 0 Z " fill="#000000" transform="translate(64,147)"/>
<path d="M0 0 C7.59 0 15.18 0 23 0 C23 7.26 23 14.52 23 22 C15.41 22 7.82 22 0 22 C0 14.74 0 7.48 0 0 Z " fill="#000000" transform="translate(64,116)"/>
</svg>
