<?xml version="1.0" encoding="UTF-8"?>
<svg version="1.1" xmlns="http://www.w3.org/2000/svg" width="2350" height="415">
<path d="M0 0 C0.89996704 0.00054382 1.79993408 0.00108765 2.72717285 0.00164795 C25.10316641 0.06362994 45.82792327 3.38019669 67.125 10.375 C67.82882812 10.60413086 68.53265625 10.83326172 69.2578125 11.06933594 C100.37908154 21.41805909 127.12812324 40.34029943 150.125 63.375 C150.7128125 63.91640625 151.300625 64.4578125 151.90625 65.015625 C163.7850324 76.13848488 173.01079454 90.36577127 181.125 104.375 C181.5060791 105.02871582 181.8871582 105.68243164 182.27978516 106.35595703 C195.8242338 129.89571247 203.74539947 155.5165311 207.125 182.375 C207.22071289 183.12225342 207.31642578 183.86950684 207.41503906 184.6394043 C213.6548185 239.058556 197.56768477 294.52450053 163.640625 337.37109375 C157.79341285 344.35324615 151.56962228 350.94096002 145.125 357.375 C144.58359375 357.9628125 144.0421875 358.550625 143.484375 359.15625 C122.8473185 381.1958249 92.56716617 397.31026247 64.125 406.375 C63.41134277 406.60767578 62.69768555 406.84035156 61.96240234 407.08007812 C56.73599384 408.75577521 51.47280893 410.14374302 46.125 411.375 C45.27953613 411.57254883 44.43407227 411.77009766 43.56298828 411.97363281 C15.24425699 418.26897384 -16.66381994 417.81042758 -44.875 411.375 C-45.71530762 411.19308105 -46.55561523 411.01116211 -47.42138672 410.82373047 C-65.87577558 406.75947911 -83.29526735 399.34765769 -99.875 390.375 C-100.55095215 390.01212891 -101.2269043 389.64925781 -101.92333984 389.27539062 C-147.89819756 364.29396221 -183.08654089 319.91018962 -198.53125 270.08203125 C-200.07535102 264.82692583 -201.38597079 259.52195339 -202.625 254.1875 C-202.82383789 253.33365723 -203.02267578 252.47981445 -203.22753906 251.60009766 C-206.3993228 237.22370222 -207.28495345 223.16356172 -207.25 208.5 C-207.24912384 207.59870361 -207.24824768 206.69740723 -207.24734497 205.76879883 C-207.20011291 190.99317242 -206.30437884 176.79977919 -202.875 162.375 C-202.62830566 161.32973145 -202.38161133 160.28446289 -202.12744141 159.20751953 C-198.72773475 145.24764364 -194.20205397 132.25812775 -187.875 119.375 C-187.2175037 117.98626646 -186.56124801 116.59694486 -185.90625 115.20703125 C-162.31689414 65.83368791 -118.21695984 28.63200099 -66.96948242 10.46899414 C-56.46532084 6.88524408 -45.82888804 4.16674458 -34.875 2.375 C-33.81619629 2.19839844 -32.75739258 2.02179687 -31.66650391 1.83984375 C-21.09423594 0.24252281 -10.67536532 -0.02435052 0 0 Z " fill="#707084" transform="translate(206.875,-0.375)"/>
<path d="M0 0 C21.39334844 18.43326249 30.4982614 64.19199611 32.71875 90.83203125 C36.265561 146.81935229 22.00911383 202.67867509 -15.41992188 245.62939453 C-20.11628094 250.91669652 -24.99556534 256.0037828 -30 261 C-30.54140625 261.5878125 -31.0828125 262.175625 -31.640625 262.78125 C-36.19761936 267.64794301 -41.28726357 271.7011937 -46.5625 275.75 C-47.28276367 276.30494141 -48.00302734 276.85988281 -48.74511719 277.43164062 C-53.00746303 280.65814865 -57.29841595 283.45459576 -62 286 C-79.63764679 271.77371029 -79.63764679 271.77371029 -86 266 C-86.94359375 265.14792969 -87.8871875 264.29585938 -88.859375 263.41796875 C-98.35552874 254.80625339 -107.02533458 246.06136954 -115 236 C-116.19109375 234.55173828 -116.19109375 234.55173828 -117.40625 233.07421875 C-132.55463241 214.21064762 -146.0611986 189.72177019 -147 165 C-147.07734375 163.28296875 -147.07734375 163.28296875 -147.15625 161.53125 C-147.79570071 134.46117002 -138.65251543 110.20869499 -122 89 C-121.07380859 87.76830078 -121.07380859 87.76830078 -120.12890625 86.51171875 C-110.15936711 73.70484488 -98.09319016 61.58412747 -85 52 C-84.09636719 51.30261719 -83.19273437 50.60523438 -82.26171875 49.88671875 C-62.8666884 35.01291402 -41.65731142 22.28102775 -20 11 C-18.6887679 10.28499721 -17.37895903 9.5673804 -16.0703125 8.84765625 C-15.39371582 8.47825928 -14.71711914 8.1088623 -14.02001953 7.72827148 C-12.71382288 7.01486773 -11.40993571 6.2972119 -10.10888672 5.57446289 C-6.75777805 3.7595447 -3.78901305 2.50233128 0 2 C0 1.34 0 0.68 0 0 Z " fill="#606076" transform="translate(382,96)"/>
<path d="M0 0 C21.78 -0.04125 43.56 -0.0825 66 -0.125 C72.82945313 -0.14320801 79.65890625 -0.16141602 86.6953125 -0.18017578 C95.15625 -0.18920898 95.15625 -0.18920898 99.140625 -0.19088745 C101.87214916 -0.19392108 104.60347555 -0.20009113 107.33496094 -0.21115112 C181.48134351 -0.49751028 181.48134351 -0.49751028 204.51171875 21.38671875 C209.60266078 26.74693374 213.28892696 32.12131664 216 39 C216.31839844 39.78246094 216.63679688 40.56492188 216.96484375 41.37109375 C222.08740387 56.50271143 219.81239586 74.63818966 213.6796875 89.1171875 C205.79799518 104.66522535 192.26588908 113.57803697 176 119 C177.59328125 119.65355469 177.59328125 119.65355469 179.21875 120.3203125 C194.3030208 126.62549132 194.3030208 126.62549132 200 132 C200.5878125 132.53625 201.175625 133.0725 201.78125 133.625 C212.40892286 144.43912327 215.24422522 158.54246462 217 173 C217.37095669 175.9418082 217.74494292 178.88319503 218.12207031 181.82421875 C218.36514895 183.74623586 218.59958775 185.6693759 218.82324219 187.59375 C219.72073666 194.9737339 221.30044492 201.63526131 223 209 C203.53 209 184.06 209 164 209 C161.2533817 198.01352679 159.02863758 187.63622141 157.578125 176.515625 C155.58513814 162.35854594 151.71885598 150.24962179 140.58984375 140.82421875 C127.30171949 131.46440875 110.7345212 130.90940005 95.08984375 130.68359375 C94.0177063 130.66494263 92.94556885 130.6462915 91.84094238 130.6270752 C87.87320427 130.55927821 83.90534362 130.49881174 79.9375 130.4375 C71.048125 130.293125 62.15875 130.14875 53 130 C53 156.07 53 182.14 53 209 C35.51 209 18.02 209 0 209 C0 140.03 0 71.06 0 0 Z M53 38 C53 55.82 53 73.64 53 92 C67.12792178 92.05825099 67.12792178 92.05825099 81.25585938 92.09765625 C87.02502154 92.10957366 92.79411971 92.12361397 98.56323242 92.15087891 C103.21869797 92.17274097 107.87409482 92.1845966 112.52960777 92.18975449 C114.29844938 92.19342639 116.06728757 92.20059615 117.83609962 92.21146011 C136.54498031 92.76361739 136.54498031 92.76361739 153 85 C159.30341156 78.69658844 161.15724907 72.74093725 161.4375 64.0625 C161.25620562 56.99957298 160.15483554 51.62606414 155.45703125 46.2265625 C147.64992647 38.90181889 138.03531461 37.83722688 127.69970703 37.88647461 C126.48407326 37.88625557 126.48407326 37.88625557 125.24388123 37.8860321 C122.5818305 37.88672529 119.91985091 37.89448977 117.2578125 37.90234375 C115.40550779 37.90421004 113.55320259 37.90563295 111.70089722 37.90663147 C106.8380394 37.91044003 101.97521169 37.92025608 97.11236572 37.93133545 C91.27110415 37.94338913 85.42983248 37.94795972 79.58856201 37.95378876 C70.7256871 37.96346876 61.86287819 37.98263694 53 38 Z " fill="#424141" transform="translate(1793,103)"/>
<path d="M0 0 C20.13 0 40.26 0 61 0 C64.568125 7.280625 68.13625 14.56125 71.8125 22.0625 C72.91311768 24.30683838 74.01373535 26.55117676 75.14770508 28.86352539 C80.98949602 40.78678727 86.7628929 52.74049659 92.47924805 64.72436523 C95.63536215 71.33802301 98.83299595 77.93124786 102.03790283 84.5213623 C107.37040089 95.48811495 112.67395875 106.46788121 117.92456055 117.47412109 C121.53306592 125.03447969 125.16864133 132.5816346 128.8125 140.125 C129.10575165 140.7321283 129.3990033 141.33925659 129.70114136 141.96478271 C131.80015636 146.31014735 133.89998371 150.6551192 136 155 C140.1139662 163.51169242 144.22537309 172.02459924 148.33056641 180.54052734 C149.99182026 183.98304958 151.6579083 187.42320436 153.32421875 190.86328125 C154.34136075 192.97125048 155.35829883 195.07931812 156.375 197.1875 C157.08112427 198.640354 157.08112427 198.640354 157.80151367 200.12255859 C158.22537354 201.00379395 158.6492334 201.8850293 159.0859375 202.79296875 C159.4576709 203.5614917 159.8294043 204.33001465 160.21240234 205.12182617 C161 207 161 207 161 209 C140.54 209 120.08 209 99 209 C83.99468083 179.12702514 83.99468083 179.12702514 77.29589844 164.94311523 C74.55047217 159.16014204 71.72100241 153.42512056 68.8359375 147.7109375 C68.47324265 146.99144928 68.11054779 146.27196106 67.73686218 145.53067017 C65.9343783 141.95713977 64.1249804 138.38736966 62.30493164 134.82275391 C61.63926835 133.50694586 60.97381292 132.19103263 60.30859375 130.875 C59.71876709 129.71742188 59.12894043 128.55984375 58.52124023 127.3671875 C56.95976432 123.91094037 55.94613911 120.66224853 55 117 C54.34 117 53.68 117 53 117 C52.76488708 117.78677628 52.76488708 117.78677628 52.52502441 118.58944702 C50.52186083 124.96367916 47.81976783 130.81664575 44.84375 136.7890625 C44.34137817 137.80938568 43.83900635 138.82970886 43.32141113 139.88095093 C41.71965918 143.13165805 40.11019472 146.37846788 38.5 149.625 C36.40404667 153.86610137 34.31110192 158.10868339 32.21875 162.3515625 C31.44301636 163.92336273 31.44301636 163.92336273 30.65161133 165.5269165 C27.06901459 172.7972581 23.53056965 180.08765337 20.03125 187.3984375 C19.59679565 188.30518219 19.16234131 189.21192688 18.71472168 190.14614868 C15.73173402 196.39910539 12.86796484 202.69047736 10 209 C-1.22 209 -12.44 209 -24 209 C-23.09503326 204.4751663 -21.72292616 200.92280846 -19.74609375 196.83203125 C-19.41374222 196.13264938 -19.08139069 195.43326752 -18.7389679 194.71269226 C-17.64351161 192.41019183 -16.54042345 190.11143159 -15.4375 187.8125 C-14.66701769 186.19561044 -13.89717007 184.57841828 -13.12792969 182.9609375 C-11.53842816 179.61958396 -9.94655709 176.27937559 -8.35302734 172.93994141 C-4.79250314 165.47230297 -1.27040058 157.98661419 2.25 150.5 C2.58037262 149.79791412 2.91074524 149.09582825 3.25112915 148.37246704 C6.66928281 141.10819815 10.07972924 133.84041153 13.46875 126.5625 C14.29234009 124.79422852 14.29234009 124.79422852 15.13256836 122.99023438 C16.197358 120.69253888 17.25564434 118.39181664 18.30688477 116.08789062 C20.68296797 110.89220877 23.09896056 105.74436012 25.75418091 100.6842041 C26.67222669 98.92799503 27.56820979 97.16031006 28.46386719 95.39257812 C29.57817691 93.19931356 30.7290908 91.02410031 31.92285156 88.87304688 C34.20740085 84.29201076 35.49494098 81.61787159 33.95556641 76.5859375 C32.46372949 73.57849287 30.87231859 70.78395172 29 68 C20.45140905 85.47629735 11.95064052 102.9641713 3.81567383 120.63769531 C-0.18694637 129.30993556 -4.32012424 137.9123811 -8.5 146.5 C-13.90079214 157.59782149 -19.18568208 168.74100389 -24.34960938 179.95117188 C-28.8277405 189.67082023 -33.41744771 199.32572293 -38 209 C-58.46 209 -78.92 209 -100 209 C-98.5779744 204.73392321 -97.17989539 201.08099322 -95.234375 197.08984375 C-94.68136719 195.9503125 -94.12835937 194.81078125 -93.55859375 193.63671875 C-92.95575844 192.40363152 -92.35289302 191.17055901 -91.75 189.9375 C-91.12070437 188.64341844 -90.49180533 187.34914397 -89.86328125 186.0546875 C-88.5581738 183.36757775 -87.2513697 180.6813033 -85.94335938 177.99560547 C-82.94624832 171.83812458 -79.9744693 165.66844263 -77 159.5 C-75.83360054 157.08320431 -74.66679958 154.66660254 -73.5 152.25 C-72.91665927 151.04167024 -72.33332594 149.8333369 -71.75 148.625 C-70.58333333 146.20833333 -69.41666667 143.79166667 -68.25 141.375 C-67.96126007 140.77689514 -67.67252014 140.17879028 -67.37503052 139.56256104 C-66.79159773 138.35402315 -66.20816268 137.14548637 -65.62472534 135.93695068 C-64.16789493 132.91925595 -62.71110387 129.90154224 -61.25439453 126.88378906 C-58.61149167 121.40878885 -55.96828716 115.93393522 -53.32363892 110.45977783 C-51.84056649 107.389945 -50.35772148 104.32000235 -48.875 101.25 C-48.58236267 100.64410034 -48.28972534 100.03820068 -47.98822021 99.41394043 C-44.02099165 91.19875342 -40.0676175 82.97702643 -36.125 74.75 C-31.1067187 64.27957046 -26.04429434 53.83089521 -20.97363281 43.38577271 C-15.83085886 32.79125851 -10.71428712 22.18470548 -5.62890625 11.5625 C-5.17644531 10.61761719 -4.72398437 9.67273438 -4.2578125 8.69921875 C-3.8673877 7.88283936 -3.47696289 7.06645996 -3.07470703 6.2253418 C-2.06820981 4.14123863 -1.03503842 2.07007684 0 0 Z " fill="#424141" transform="translate(819,103)"/>
<path d="M0 0 C19.8 0 39.6 0 60 0 C70.27501397 19.40835972 70.27501397 19.40835972 74.1875 27.75 C75.12180948 29.72163213 76.05673591 31.69297199 76.9921875 33.6640625 C77.4778418 34.68918945 77.96349609 35.71431641 78.46386719 36.77050781 C81.22129467 42.56759152 84.01835932 48.34554922 86.8125 54.125 C87.40572277 55.35284408 87.99890291 56.58070877 88.59204102 57.80859375 C89.79210422 60.29274645 90.99238299 62.77679479 92.19287109 65.26074219 C95.17124253 71.42334753 98.14854191 77.58647032 101.125 83.75 C101.41736542 84.35535583 101.70973083 84.96071167 102.01095581 85.58441162 C105.97846284 93.80014616 109.93213962 102.02240887 113.875 110.25 C118.5745876 120.05610718 123.31357595 129.84273031 128.0625 139.625 C133.06080777 149.92132376 138.04610934 160.22320586 142.96435547 170.55810547 C145.16845485 175.18646303 147.38832148 179.80626118 149.63835144 184.4125061 C150.85906298 186.9118961 152.07570454 189.41325949 153.29238892 191.91461182 C154.17017613 193.71447811 155.05414392 195.51132596 155.93823242 197.30810547 C156.46779541 198.39752441 156.9973584 199.48694336 157.54296875 200.609375 C158.01758545 201.57842773 158.49220215 202.54748047 158.98120117 203.54589844 C160 206 160 206 160 209 C139.87 209 119.74 209 99 209 C87.34993248 186.86487171 87.34993248 186.86487171 82.4375 176.5625 C81.91865234 175.48935547 81.39980469 174.41621094 80.86523438 173.31054688 C80.12563477 171.76657227 80.12563477 171.76657227 79.37109375 170.19140625 C78.93724365 169.28592041 78.50339355 168.38043457 78.05639648 167.44750977 C77 165 77 165 76 161 C45.64 161.33 15.28 161.66 -16 162 C-23.23305856 177.11613191 -23.23305856 177.11613191 -30.4453125 192.2421875 C-30.90164063 193.20125 -31.35796875 194.1603125 -31.828125 195.1484375 C-32.73324979 197.05138058 -33.63676929 198.95508768 -34.5390625 200.859375 C-34.9825 201.79007813 -35.4259375 202.72078125 -35.8828125 203.6796875 C-36.46119873 204.89760986 -36.46119873 204.89760986 -37.05126953 206.14013672 C-38 208 -38 208 -39 209 C-40.93306498 209.09396057 -42.86958838 209.11743517 -44.80493164 209.11352539 C-46.66674828 209.11341209 -46.66674828 209.11341209 -48.56617737 209.11329651 C-49.9308374 209.10818911 -51.29549702 209.1029731 -52.66015625 209.09765625 C-54.04878183 209.095792 -55.43740807 209.09436813 -56.82603455 209.09336853 C-60.48721115 209.08954387 -64.1483483 209.07971403 -67.80950928 209.06866455 C-71.54292263 209.05844932 -75.27634234 209.05387067 -79.00976562 209.04882812 C-86.33986177 209.03809171 -93.66992536 209.02101591 -101 209 C-95.13018009 195.7147674 -88.96904819 182.60331169 -82.54840088 169.57580566 C-80.10880848 164.62548657 -77.68013294 159.66981142 -75.25 154.71484375 C-74.78111359 153.75949738 -74.31222717 152.804151 -73.82913208 151.81985474 C-70.55628702 145.14773126 -67.31551302 138.46195523 -64.125 131.75 C-59.81625289 122.6860531 -55.44620302 113.65285929 -51.0625 104.625 C-46.35377405 94.92674119 -41.6566626 85.22340626 -37 75.5 C-32.00269786 65.06531682 -26.9591027 54.65349931 -21.90368652 44.24688721 C-17.03599477 34.22620819 -12.19882015 24.1920127 -7.44897461 14.11474609 C-6.8477478 12.84751709 -6.8477478 12.84751709 -6.234375 11.5546875 C-5.72729004 10.47936768 -5.72729004 10.47936768 -5.20996094 9.38232422 C-3.59005472 6.19284785 -1.77482259 3.10593954 0 0 Z M29 53 C21.69358375 68.05739801 14.4796663 83.1485339 7.49145508 98.35644531 C4.50648125 104.83404484 1.40268775 111.2192103 -1.90063477 117.54125977 C-3.2040906 120.00756272 -3.2040906 120.00756272 -3 123 C18.78 123 40.56 123 63 123 C61.05632989 117.16898966 59.32821019 112.27769554 56.6640625 106.88671875 C56.34799042 106.24204651 56.03191833 105.59737427 55.70626831 104.9331665 C55.03186098 103.55845025 54.3550637 102.18490418 53.67602539 100.81246948 C51.87835949 97.1779377 50.09948543 93.53423641 48.3203125 89.890625 C47.95951599 89.15251083 47.59871948 88.41439667 47.22698975 87.65391541 C43.5562711 80.12577475 40.01170722 72.54086723 36.5 64.9375 C36.21715149 64.32546722 35.93430298 63.71343445 35.6428833 63.08285522 C34.09125926 59.72373547 32.54361081 56.36280909 31 53 C30.34 53 29.68 53 29 53 Z " fill="#424141" transform="translate(1603,103)"/>
<path d="M0 0 C22.831875 -0.04125 45.66375 -0.0825 69.1875 -0.125 C76.35750732 -0.14320801 83.52751465 -0.16141602 90.91479492 -0.18017578 C99.7701416 -0.18920898 99.7701416 -0.18920898 103.93501282 -0.19088745 C106.80162242 -0.19272699 109.66815556 -0.20012492 112.53474426 -0.21115112 C175.35605995 -0.44171392 175.35605995 -0.44171392 198.34765625 21.2109375 C207.36692346 30.52414309 213.55589634 42.25430242 216 55 C216.18046875 55.93972656 216.3609375 56.87945312 216.546875 57.84765625 C219.25665932 76.69934544 214.59646307 94.30368531 203.96875 110 C191.99847963 125.61339613 175.68051255 133.16323865 156.56261063 135.73352432 C147.76360902 136.64849747 138.86051551 136.35809355 130.02734375 136.29296875 C127.76477848 136.28735946 125.50220953 136.28309568 123.23963928 136.28010559 C117.34277934 136.26876171 111.44614823 136.23938693 105.54937744 136.20599365 C98.44304888 136.1696076 91.33664294 136.15608174 84.2302475 136.13863373 C73.4866735 136.10974155 62.74359959 136.05218154 52 136 C52 160.09 52 184.18 52 209 C34.84 209 17.68 209 0 209 C0 140.03 0 71.06 0 0 Z M52 38 C52 57.8 52 77.6 52 98 C66.35448438 98.05822466 66.35448438 98.05822466 80.70898438 98.09765625 C86.5683151 98.10958632 92.42758298 98.12366122 98.28686523 98.15087891 C103.01364389 98.17269708 107.7403551 98.1845875 112.46718025 98.18975449 C114.26558556 98.19343418 116.06398741 98.20061951 117.86236382 98.21146011 C120.39196467 98.2260945 122.92129099 98.22797299 125.45092773 98.22705078 C126.18533081 98.23424133 126.91973389 98.24143188 127.6763916 98.24884033 C136.32690514 98.21497731 144.24322918 96.63301314 151 91 C158.75875593 82.81115782 159.57623312 73.96503774 159.3046875 63.17578125 C158.89792933 55.68100986 156.7190605 50.26241382 151.25 45.0625 C143.09281735 38.63058418 134.01918599 37.83595611 123.86157227 37.88647461 C123.08026443 37.88632858 122.2989566 37.88618256 121.49397278 37.8860321 C118.9347548 37.88672373 116.37561138 37.89448073 113.81640625 37.90234375 C112.03279154 37.9042106 110.24917632 37.90563324 108.46556091 37.90663147 C103.78848842 37.91043565 99.11144735 37.92024787 94.43438721 37.93133545 C88.81336364 37.94340106 83.19232952 37.94796181 77.57129669 37.95378876 C69.04750932 37.96346086 60.52379081 37.98263208 52 38 Z " fill="#424141" transform="translate(1043,103)"/>
<path d="M0 0 C2.28355789 0.00374013 4.56711741 0.00658236 6.85067749 0.00857544 C12.79842732 0.01613323 18.74607612 0.03571221 24.69378662 0.0579834 C30.78803135 0.07861312 36.88229275 0.08761341 42.9765625 0.09765625 C54.88807188 0.11896719 66.7994804 0.15408322 78.7109375 0.1953125 C78.7109375 12.7353125 78.7109375 25.2753125 78.7109375 38.1953125 C72.85601563 38.24429688 67.00109375 38.29328125 60.96875 38.34375 C57.22264069 38.37920455 53.47655193 38.41520322 49.73046875 38.453125 C43.80618499 38.51304614 37.88192944 38.57113263 31.95751953 38.6171875 C27.17225026 38.65451445 22.3871437 38.70099075 17.60201645 38.75337601 C15.79155251 38.77167187 13.98105404 38.78686739 12.17053604 38.79865646 C-18.89920709 38.46422084 -18.89920709 38.46422084 -45.5546875 52.3515625 C-54.2693054 62.29268217 -55.31621373 73.37179548 -57.2890625 86.1953125 C-12.4090625 86.1953125 32.4709375 86.1953125 78.7109375 86.1953125 C78.7109375 98.7353125 78.7109375 111.2753125 78.7109375 124.1953125 C33.8309375 124.1953125 -11.0490625 124.1953125 -57.2890625 124.1953125 C-53.97057822 139.26524417 -53.97057822 139.26524417 -47.2890625 152.1953125 C-46.7115625 153.1234375 -46.1340625 154.0515625 -45.5390625 155.0078125 C-24.87105408 175.10170958 11.97429883 170.70671496 38.44805908 170.86486816 C43.80761368 170.90048304 49.1669849 170.95723527 54.52639008 171.01026154 C62.58787913 171.08774732 70.64914575 171.13912602 78.7109375 171.1953125 C78.7109375 183.7353125 78.7109375 196.2753125 78.7109375 209.1953125 C57.75185636 209.27553012 57.75185636 209.27553012 48.65039062 209.29296875 C42.49841762 209.304813 36.34650546 209.31864825 30.19458008 209.34619141 C-61.34234111 209.7448233 -61.34234111 209.7448233 -90.2890625 181.1953125 C-110.5523616 160.60452574 -117.01677592 132.20293059 -117.5390625 104.1953125 C-116.96842625 73.66627298 -107.87077344 45.74046861 -85.49609375 24.16015625 C-60.35349864 1.77657157 -32.00799213 -0.15611388 0 0 Z " fill="#424141" transform="translate(2161.2890625,102.8046875)"/>
<path d="M0 0 C2.16287944 0.00561807 4.32576278 0.00987765 6.48864746 0.01286316 C12.09113729 0.02413835 17.69338144 0.05344892 23.29577637 0.0869751 C29.04871297 0.11805708 34.80169055 0.13144865 40.5546875 0.14648438 C51.77616517 0.17834132 62.99739842 0.23096003 74.21875 0.29296875 C74.21875 12.83296875 74.21875 25.37296875 74.21875 38.29296875 C68.17304687 38.34195313 62.12734375 38.3909375 55.8984375 38.44140625 C52.04295314 38.47683791 48.18748956 38.51282373 44.33203125 38.55078125 C38.22740838 38.61083008 32.12281424 38.66894987 26.01806641 38.71484375 C21.09017102 38.75201968 16.16243833 38.79846206 11.23468399 38.85103226 C9.36509207 38.86940619 7.49546552 38.8845751 5.62582016 38.89631271 C-13.98812341 39.02372818 -35.38621548 39.79518314 -51.0703125 53.2578125 C-64.58066436 67.24886977 -65.1173091 88.18705848 -64.93359375 106.55859375 C-64.22647078 123.8921721 -61.63715741 143.6860079 -49.71875 157.16796875 C-37.17810967 168.46832597 -18.13749699 170.37614947 -1.95678711 170.49829102 C-1.12641937 170.50819061 -0.29605164 170.51809021 0.55947876 170.52828979 C3.2700935 170.55956268 5.98072569 170.58452501 8.69140625 170.609375 C10.58426842 170.62997418 12.4771263 170.65097137 14.36997986 170.67234802 C19.32645162 170.72726285 24.28296277 170.77680567 29.23950195 170.82519531 C35.20019541 170.88451998 41.16081766 170.95057788 47.12145233 171.0154953 C56.15384101 171.11311933 65.1862776 171.20223864 74.21875 171.29296875 C74.21875 183.83296875 74.21875 196.37296875 74.21875 209.29296875 C60.85659636 209.33838854 47.49449508 209.37498136 34.1322813 209.39659309 C27.92580454 209.40697241 21.71938392 209.42102304 15.51293945 209.44384766 C9.5087969 209.46578682 3.50470792 209.47758121 -2.49947166 209.48272324 C-4.77525868 209.48638156 -7.0510432 209.49352364 -9.32680702 209.50442886 C-42.23491054 209.65566196 -74.21581958 206.49114985 -98.94140625 182.16796875 C-119.18265842 160.32769665 -124.60400059 129.51401003 -123.96484375 100.6015625 C-122.48870038 73.9995745 -116.52633379 49.79970465 -98.78125 29.29296875 C-98.20890625 28.62007812 -97.6365625 27.9471875 -97.046875 27.25390625 C-73.12280494 1.31642436 -32.76090942 -0.25642544 0 0 Z " fill="#424141" transform="translate(1406.78125,102.70703125)"/>
<path d="M0 0 C8.27411864 8.22971371 15.89376095 16.50562527 22.6875 26 C23.21674072 26.72993164 23.74598145 27.45986328 24.29125977 28.21191406 C24.77651123 28.90510742 25.2617627 29.59830078 25.76171875 30.3125 C26.19444092 30.92738281 26.62716309 31.54226562 27.07299805 32.17578125 C28 34 28 34 28 38 C27.46632813 38.24645264 26.93265625 38.49290527 26.3828125 38.74682617 C23.91931115 39.88827333 21.45967407 41.03783012 19 42.1875 C18.16082031 42.57486328 17.32164062 42.96222656 16.45703125 43.36132812 C11.70309811 45.59088592 7.23954393 48.00393688 2.828125 50.84985352 C0.14282129 52.53928537 -2.67179277 53.9406949 -5.5 55.375 C-12.62017571 59.08630291 -19.43872096 63.25293011 -26.25 67.5 C-27.24322266 68.11665527 -28.23644531 68.73331055 -29.25976562 69.36865234 C-38.7663759 75.34419089 -47.78787445 81.88224916 -56.49609375 88.96875 C-58.13881882 90.30138188 -59.79740468 91.61474484 -61.47265625 92.90625 C-89.27392031 114.71116299 -113.2202843 145.39487636 -117.6875 181.33203125 C-120.73615855 217.11566094 -105.97623183 248.23263788 -83.52734375 275.20703125 C-69.41376969 291.77513993 -53.47181151 307.17984424 -35.609375 319.671875 C-35.07828125 320.11015625 -34.5471875 320.5484375 -34 321 C-34 321.66 -34 322.32 -34 323 C-43.24138567 328.2886783 -52.54033036 333.41842104 -62.125 338.0625 C-62.89303955 338.44398193 -63.6610791 338.82546387 -64.45239258 339.21850586 C-69.36270342 341.55366947 -73.51617621 343.0619323 -79 343 C-81.984375 341.078125 -81.984375 341.078125 -84.75 338.25 C-85.78057915 337.2271882 -86.81184959 336.20507254 -87.84375 335.18359375 C-88.36324219 334.65491699 -88.88273437 334.12624023 -89.41796875 333.58154297 C-91.93994737 331.06034274 -94.60022248 328.69759433 -97.25 326.3125 C-105.57375445 318.68894921 -112.97303302 310.8433074 -120 302 C-120.89919721 300.8914869 -121.79895527 299.78342857 -122.69921875 298.67578125 C-151.03646102 263.56580401 -165.7160512 223.27746893 -163 178 C-158.95236261 141.64363506 -141.0024618 109.93229966 -117 83 C-116.53174805 82.47003418 -116.06349609 81.94006836 -115.58105469 81.39404297 C-110.75774242 75.9509663 -105.90626321 70.6204656 -100.31640625 65.9453125 C-98.45885434 64.38534479 -96.6455368 62.79829231 -94.83984375 61.1796875 C-85.03731389 52.44300108 -74.71517088 44.58257435 -64 37 C-63.36658691 36.55060059 -62.73317383 36.10120117 -62.08056641 35.63818359 C-46.39496849 24.60877688 -29.56941487 14.96417396 -12.31640625 6.62109375 C-8.11953368 4.56961894 -4.04385921 2.33645199 0 0 Z " fill="#A7DFF8" transform="translate(354,60)"/>
<path d="M0 0 C0.89397491 -0.0033284 1.78794983 -0.0066568 2.70901489 -0.01008606 C4.58302296 -0.01511661 6.45703987 -0.01749559 8.33105469 -0.01733398 C11.20782839 -0.01954085 14.08423045 -0.03779222 16.9609375 -0.05664062 C18.78645703 -0.05957123 20.61197836 -0.06155825 22.4375 -0.0625 C23.29890594 -0.06968552 24.16031189 -0.07687103 25.04782104 -0.08427429 C31.09146178 -0.06088197 31.09146178 -0.06088197 33.3203125 2.16796875 C31.05274527 3.81847013 28.78152289 5.46346903 26.5078125 7.10546875 C25.86521484 7.57404297 25.22261719 8.04261719 24.56054688 8.52539062 C23.93857422 8.97333984 23.31660156 9.42128906 22.67578125 9.8828125 C22.10496826 10.296521 21.53415527 10.71022949 20.94604492 11.13647461 C19.3203125 12.16796875 19.3203125 12.16796875 16.3203125 13.16796875 C15.63946524 14.49411702 14.97402277 15.82823553 14.3203125 17.16796875 C12.76171875 18.5546875 12.76171875 18.5546875 10.8828125 19.85546875 C1.28855918 26.7846517 -7.36873876 34.55406466 -15.95703125 42.66796875 C-18.81979482 45.37173099 -21.7213107 48.02633865 -24.64746094 50.66113281 C-29.05882799 54.63951673 -33.16683126 58.66639338 -36.98046875 63.21875 C-38.90330413 65.4244853 -40.95704119 67.44058895 -43.0546875 69.48046875 C-47.12954964 73.5071484 -50.74055644 77.77473752 -54.31640625 82.24609375 C-56.33667614 84.74388198 -58.40973923 87.18110087 -60.51635742 89.60595703 C-88.15185479 121.56184211 -119.04570892 164.86752693 -116.89746094 208.96875 C-116.24601095 215.54751847 -113.13258141 220.28310103 -108.1796875 224.48046875 C-81.65928421 242.11107393 -41.60807664 243.30322896 -10.6796875 246.16796875 C-10.63481201 246.74949707 -10.58993652 247.33102539 -10.54370117 247.93017578 C-9.40517295 262.42337068 -7.79770702 276.78538528 -5.6796875 291.16796875 C-17.65233323 290.76071338 -29.51654213 290.26671197 -41.37744141 288.50244141 C-44.01030996 288.11993558 -46.64732975 287.7763179 -49.28515625 287.4296875 C-61.98482109 285.68995254 -74.41767382 283.2429139 -86.8671875 280.23046875 C-87.54780243 280.0673822 -88.22841736 279.90429565 -88.92965698 279.73626709 C-113.55815146 273.79383479 -137.04288563 265.17532169 -151.6796875 243.16796875 C-153.56584041 239.91546885 -155.18880862 236.61812523 -156.6796875 233.16796875 C-156.96457031 232.513125 -157.24945313 231.85828125 -157.54296875 231.18359375 C-158.34264202 229.19876369 -159.02415988 227.20491897 -159.6796875 225.16796875 C-160.09927734 223.94980469 -160.09927734 223.94980469 -160.52734375 222.70703125 C-170.69369204 188.94529787 -153.78921528 151.68347311 -138.27636719 122.53076172 C-123.6465225 95.61796523 -104.65985765 70.33210123 -84.015625 47.75 C-82.11582738 45.65005648 -80.26224271 43.52375008 -78.4140625 41.37890625 C-74.64163419 37.05765993 -70.63436588 33.01001876 -66.5546875 28.98046875 C-65.86503906 28.29533203 -65.17539063 27.61019531 -64.46484375 26.90429688 C-62.53813769 24.99048464 -60.6093065 23.07884333 -58.6796875 21.16796875 C-56.29210333 18.80076225 -53.92886552 16.43875181 -51.65234375 13.96484375 C-46.44734549 8.38729961 -46.44734549 8.38729961 -42.1796875 7.16796875 C-41.3546875 7.16796875 -40.5296875 7.16796875 -39.6796875 7.16796875 C-39.6796875 6.50796875 -39.6796875 5.84796875 -39.6796875 5.16796875 C-36.18037163 4.51839244 -32.68012038 3.87399617 -29.1796875 3.23046875 C-28.19742188 3.04806641 -27.21515625 2.86566406 -26.203125 2.67773438 C-25.23632812 2.50048828 -24.26953125 2.32324219 -23.2734375 2.140625 C-22.39365234 1.97828369 -21.51386719 1.81594238 -20.60742188 1.64868164 C-13.67337222 0.51016065 -7.01710631 0.00919482 0 0 Z " fill="#FDCE55" transform="translate(196.6796875,-0.16796875)"/>
<path d="M0 0 C17.16 0 34.32 0 52 0 C52.029729 5.5071167 52.029729 5.5071167 52.06005859 11.12548828 C52.12734186 23.33507252 52.20487941 35.54457216 52.28752708 47.75406075 C52.33732976 55.1475436 52.38377177 62.54101713 52.421875 69.93457031 C52.45515296 76.39008128 52.49517128 82.84551207 52.54279006 89.30093372 C52.5677058 92.70876725 52.58958275 96.11655005 52.60334396 99.52444839 C52.65976263 112.10781768 52.77182415 124.66909869 53.77587891 137.21826172 C53.83600851 138.07071535 53.89613811 138.92316898 53.95808983 139.80145454 C54.65847331 147.30493648 56.54825909 155.00981559 62.125 160.375 C76.8133069 171.4146192 98.38807918 170.10983813 115.828125 170.31640625 C117.31313577 170.33703532 118.79814146 170.35803307 120.28314209 170.37937927 C124.14959539 170.43398655 128.01609612 170.48366034 131.88262939 170.53222656 C136.54435795 170.59183977 141.2060018 170.65772243 145.86766052 170.72252655 C152.91172098 170.81976153 159.95584137 170.90914505 167 171 C167 183.54 167 196.08 167 209 C147.74777152 209.08021762 147.74777152 209.08021762 139.37890625 209.09765625 C133.72505825 209.10949441 128.07127653 209.12331213 122.41748047 209.15087891 C44.23875005 209.52160389 44.23875005 209.52160389 18.4609375 186.7578125 C2.54363758 170.51232083 -0.17432855 148.78532661 -0.11352539 127.03491211 C-0.11324282 125.64443972 -0.11340261 124.25396718 -0.1139679 122.86349487 C-0.11425315 119.11413412 -0.10840048 115.36480579 -0.10139394 111.61545253 C-0.09511504 107.68769291 -0.09455303 103.75993244 -0.09336853 99.83216858 C-0.09026854 92.40573285 -0.0820732 84.97931195 -0.07201904 77.55288273 C-0.06081642 69.09334488 -0.05533702 60.63380631 -0.05032361 52.17426288 C-0.03988939 34.78283182 -0.02156057 17.39142107 0 0 Z " fill="#424141" transform="translate(538,103)"/>
<path d="M0 0 C-2.57202367 15.72489268 -7.09941619 30.21494131 -13 45 C-25.14098948 46.06780989 -37.26961187 46.30681034 -49.44921875 46.53515625 C-51.63223187 46.57835105 -53.81524063 46.62176698 -55.99824524 46.66539001 C-60.56967025 46.75591494 -65.1411355 46.84386082 -69.71264648 46.92993164 C-75.46079931 47.03834186 -81.20880658 47.15299869 -86.95680046 47.26949501 C-112.64062506 47.78725508 -138.31062784 48.1603992 -164 48 C-164.64290613 46.42505243 -165.28257136 44.84878168 -165.92089844 43.27197266 C-166.27746521 42.39433258 -166.63403198 41.5166925 -167.00140381 40.61245728 C-168.41085131 36.92515963 -169.38890627 33.22168922 -170.25 29.375 C-170.42273438 28.69566406 -170.59546875 28.01632812 -170.7734375 27.31640625 C-172.51939771 19.62586724 -172.15206459 11.83615368 -172 4 C-162.35449015 3.67728037 -152.7086343 3.36590964 -143.0625 3.0625 C-142.33056049 3.03945423 -141.59862099 3.01640846 -140.8445015 2.99266434 C-114.88769489 2.17861743 -88.93459667 1.64978645 -62.96704102 1.34204102 C-50.03556932 1.18261051 -37.12440696 0.92758441 -24.20445251 0.33885193 C-16.12991111 -0.02714261 -8.08200478 -0.10840245 0 0 Z " fill="#FDC637" transform="translate(412,244)"/>
<path d="M0 0 C11.22 0 22.44 0 34 0 C56.32451743 45.57511812 56.32451743 45.57511812 63.08154297 59.7878418 C66.99041394 68.00455922 70.96306178 76.18986298 74.9375 84.375 C80.17235576 95.15749552 85.38670733 105.94928158 90.56665039 116.75830078 C94.32305943 124.59517638 98.09544793 132.42426631 101.875 140.25 C102.16647919 140.85358337 102.45795837 141.45716675 102.75827026 142.07904053 C105.44037161 147.63285776 108.12337018 153.18624128 110.80712891 158.73925781 C114.31839604 166.00468645 117.82651112 173.27161683 121.33056641 180.54052734 C122.99182026 183.98304958 124.6579083 187.42320436 126.32421875 190.86328125 C127.34136075 192.97125048 128.35829883 195.07931812 129.375 197.1875 C129.84574951 198.15606934 130.31649902 199.12463867 130.80151367 200.12255859 C131.22537354 201.00379395 131.6492334 201.8850293 132.0859375 202.79296875 C132.6435376 203.94575317 132.6435376 203.94575317 133.21240234 205.12182617 C134 207 134 207 134 209 C122.45 209 110.9 209 99 209 C93.70599531 198.44724482 88.46310414 187.87341835 83.3125 177.25 C82.79668365 176.18718811 82.79668365 176.18718811 82.27044678 175.10290527 C77.08710012 164.41505916 72.04012216 153.67319604 67.07543945 142.88183594 C62.14450627 132.21132364 56.98892877 121.65511566 51.82427979 111.09631348 C46.4062734 100.01414318 41.12300891 88.88537234 35.97265625 77.67578125 C31.45329407 67.88195149 26.73840378 58.18927156 22 48.5 C16.36877625 36.97862008 10.79104264 25.43680096 5.375 13.8125 C4.82457031 12.636875 4.27414062 11.46125 3.70703125 10.25 C3.21332031 9.18394531 2.71960938 8.11789063 2.2109375 7.01953125 C1.78087402 6.09245361 1.35081055 5.16537598 0.90771484 4.21020508 C0 2 0 2 0 0 Z " fill="#424141" transform="translate(895,103)"/>
<path d="M0 0 C21.40061666 18.43952505 30.47287186 64.16908463 32.72265625 90.8125 C35.34138185 131.97585445 35.34138185 131.97585445 30 148 C21.09 148 12.18 148 3 148 C3.4640625 144.2565625 3.4640625 144.2565625 3.9375 140.4375 C9.13291531 96.86657162 2.79998685 56.21464461 -17 17 C-17.58265625 15.83339844 -18.1653125 14.66679688 -18.765625 13.46484375 C-19.17296875 12.65144531 -19.5803125 11.83804688 -20 11 C-17.60835832 9.67933245 -15.21219784 8.36838208 -12.8125 7.0625 C-12.13896484 6.68931641 -11.46542969 6.31613281 -10.77148438 5.93164062 C-7.19379242 3.99445132 -4.1013655 2.50172044 0 2 C0 1.34 0 0.68 0 0 Z " fill="#3D3D58" transform="translate(382,96)"/>
<path d="M0 0 C0.89058105 0.18433594 1.78116211 0.36867187 2.69873047 0.55859375 C39.26724258 8.26352481 89.00754207 26.0113131 111 59 C108.09815476 60.73450799 105.17665574 62.4327466 102.25 64.125 C101.425 64.61871094 100.6 65.11242187 99.75 65.62109375 C98.95078125 66.07871094 98.1515625 66.53632812 97.328125 67.0078125 C96.5949707 67.43723145 95.86181641 67.86665039 95.10644531 68.30908203 C93 69 93 69 90.84570312 68.21704102 C88.81882941 66.88053765 87.05244646 65.4399155 85.25 63.8125 C84.54617188 63.18601562 83.84234375 62.55953125 83.1171875 61.9140625 C81.80448999 60.72730645 80.49628496 59.53553548 79.1953125 58.3359375 C48.83532471 30.842558 10.72562759 18.13647906 -29 12 C-27.39213042 10.22579909 -25.76127944 8.61930267 -24 7 C-23.23300781 6.29101562 -22.46601563 5.58203125 -21.67578125 4.8515625 C-14.20232223 -1.36722821 -9.26386051 -2.02795078 0 0 Z " fill="#3D3D58" transform="translate(243,2)"/>
<path d="M0 0 C13 0 13 0 17.09033203 3.86791992 C18.27582782 5.62504827 19.41308259 7.41540216 20.5078125 9.23046875 C21.12598846 10.17304031 21.74416443 11.11561188 22.381073 12.08674622 C24.33956072 15.09457359 26.23174048 18.13829233 28.125 21.1875 C29.43334289 23.21947956 30.7458053 25.24881294 32.0625 27.27539062 C36.48685901 34.11768374 40.80780604 41.01301007 45 48 C45.33 32.16 45.66 16.32 46 0 C50.29 0 54.58 0 59 0 C59 23.43 59 46.86 59 71 C46 71 46 71 42.23266602 67.56274414 C41.19306802 66.00028597 40.201928 64.40481495 39.25390625 62.78515625 C38.70943344 61.94085556 38.16496063 61.09655487 37.60398865 60.22666931 C35.87902302 57.53056363 34.22110696 54.79981685 32.5625 52.0625 C31.42417017 50.25708005 30.281626 48.45431001 29.13476562 46.65429688 C26.59051998 42.64740826 24.08807422 38.61778388 21.62110901 34.56288147 C19.15344248 30.66164054 16.56059242 26.84088862 14 23 C13.67 38.84 13.34 54.68 13 71 C8.71 71 4.42 71 0 71 C0 47.57 0 24.14 0 0 Z " fill="#424141" transform="translate(1953,344)"/>
<path d="M0 0 C6.72075783 6.14392632 11.32957874 14.44421252 12.1484375 23.546875 C12.44762722 36.84273459 9.22129484 45.99662852 0.03515625 55.6875 C-11.02448518 66.18172009 -24.7763461 68.43369906 -39.4140625 68.125 C-52.12756029 67.52079416 -63.96246063 61.95638051 -72.65625 52.66796875 C-79.80519962 44.00533847 -82.98819005 34.44215942 -81.94140625 23.16015625 C-80.1328423 12.7729173 -75.23035214 4.68153048 -67.1875 -2.1875 C-45.89011594 -16.02286132 -20.2296258 -16.26003885 0 0 Z M-65.0078125 10.01953125 C-69.96624148 17.04996075 -72.28600912 24.20751188 -71.1875 32.8125 C-68.99363827 41.62960254 -64.00193835 48.45174857 -56.57421875 53.63671875 C-46.36135152 59.60265109 -36.81416124 60.77172828 -25.1875 58.8125 C-14.91416916 56.01595155 -6.59653779 50.02977001 -1.1875 40.8125 C2.15088558 33.6192239 2.88066518 27.01098638 0.75 19.375 C-2.91523139 9.48739904 -10.05895832 3.53173914 -19.1640625 -1.21875 C-34.80450924 -7.74063513 -54.35705318 -2.89394304 -65.0078125 10.01953125 Z " fill="#414040" transform="translate(2338.1875,82.1875)"/>
<path d="M0 0 C41.26785714 0 41.26785714 0 51.91015625 9.75 C59.29771137 17.52967588 61.33264705 25.05175476 61.4375 35.5625 C61.44773193 36.35374268 61.45796387 37.14498535 61.46850586 37.96020508 C61.33015502 47.29743556 58.52314211 55.23420271 52 62 C37.23985044 74.71732184 18.5302033 71 0 71 C0 47.57 0 24.14 0 0 Z M13 10 C13 26.83 13 43.66 13 61 C30.39138868 61.77659287 30.39138868 61.77659287 43.4375 53.625 C48.70344182 44.77821774 50.10821545 36.34908725 47.72265625 26.25390625 C45.40210243 19.01628703 40.13947055 14.68601196 33.625 11.1875 C27.21294788 9.33682601 27.21294788 9.33682601 13 10 Z " fill="#424141" transform="translate(2039,344)"/>
<path d="M0 0 C0.71607422 -0.02835937 1.43214844 -0.05671875 2.16992188 -0.0859375 C4.27734375 -0.09375 4.27734375 -0.09375 8.0625 0.5 C12.10023022 4.52273494 14.06809276 9.50612444 16.29296875 14.65625 C16.68768875 15.55380005 17.08240875 16.4513501 17.48908997 17.37609863 C18.74979781 20.24769455 19.99995083 23.12375071 21.25 26 C22.07029233 27.87138811 22.89125033 29.74248458 23.71289062 31.61328125 C25.76051391 36.28264112 27.79446251 40.9577826 29.82122803 45.63623047 C30.66934795 47.59294909 31.51907108 49.5489734 32.37017822 51.50439453 C33.64247496 54.4283982 34.90980429 57.35450549 36.17578125 60.28125 C36.76277046 61.62793762 36.76277046 61.62793762 37.36161804 63.00183105 C37.71706192 63.82687134 38.0725058 64.65191162 38.4387207 65.50195312 C38.75331741 66.22805786 39.06791412 66.9541626 39.39204407 67.70227051 C40.0625 69.5 40.0625 69.5 40.0625 71.5 C35.1125 71.5 30.1625 71.5 25.0625 71.5 C22.44648495 65.59660661 19.83221658 59.69244384 17.21948242 53.78759766 C16.33257874 51.78381055 15.44521891 49.78022528 14.55737305 47.77685547 C1.0625 17.3241594 1.0625 17.3241594 1.0625 14.5 C0.4025 14.5 -0.2575 14.5 -0.9375 14.5 C-1.10326035 15.03240295 -1.26902069 15.56480591 -1.43980408 16.11334229 C-3.37057241 22.12639837 -5.734212 27.85000722 -8.31640625 33.609375 C-8.72914291 34.53921204 -9.14187958 35.46904907 -9.56712341 36.42706299 C-10.87419324 39.36979017 -12.18686051 42.30997699 -13.5 45.25 C-14.81557187 48.20479899 -16.12997299 51.16011437 -17.44358826 54.11578369 C-18.25800889 55.94725164 -19.07375476 57.77813101 -19.89100647 59.6083374 C-20.44684669 60.85553558 -20.44684669 60.85553558 -21.01391602 62.12792969 C-21.33795914 62.85357117 -21.66200226 63.57921265 -21.99586487 64.32684326 C-23.02334048 66.69810733 -23.97771558 69.10053896 -24.9375 71.5 C-29.8875 71.5 -34.8375 71.5 -39.9375 71.5 C-39.20266057 67.82580283 -38.58985151 65.37821631 -37.11499023 62.0871582 C-36.74047226 61.24470047 -36.36595428 60.40224274 -35.98008728 59.53425598 C-35.57286942 58.63220932 -35.16565155 57.73016266 -34.74609375 56.80078125 C-34.32256119 55.85172409 -33.89902863 54.90266693 -33.46266174 53.92485046 C-32.10489471 50.88523257 -30.74010539 47.84882824 -29.375 44.8125 C-28.48325053 42.81987326 -27.59196991 40.82703663 -26.70117188 38.83398438 C-25.3844597 35.88823549 -24.0663989 32.94314106 -22.74325562 30.00027466 C-20.67060909 25.38951665 -18.61446993 20.77337663 -16.60595703 16.13427734 C-16.2442189 15.30357224 -15.88248077 14.47286713 -15.50978088 13.61698914 C-14.83879888 12.07299704 -14.1733283 10.52659307 -13.51451111 8.97737122 C-10.26550612 1.52551936 -8.07632522 -0.02892149 0 0 Z " fill="#414040" transform="translate(2197.9375,343.5)"/>
<path d="M0 0 C38.55526737 -0.38173532 38.55526737 -0.38173532 45.3125 4.75 C48.09643509 7.65344745 49.0837979 9.89390304 49 14 C48.02596873 19.55197822 46.23789811 22.31972007 42 26 C42.78375 26.804375 43.5675 27.60875 44.375 28.4375 C48.42460509 33.26719899 49 38.86728085 49 45 C44.05 45 39.1 45 34 45 C32.97460938 40.84960938 32.97460938 40.84960938 31.94921875 36.69921875 C30.98286703 33.95128033 30.28832457 32.74590689 28 31 C24.99221479 29.99740493 22.46179353 29.69685358 19.3125 29.4375 C17.559375 29.293125 15.80625 29.14875 14 29 C14 34.28 14 39.56 14 45 C9.38 45 4.76 45 0 45 C0 30.15 0 15.3 0 0 Z M14 10 C14 12.97 14 15.94 14 19 C16.60444348 19.05394705 19.20776998 19.09364469 21.8125 19.125 C22.91948242 19.15013672 22.91948242 19.15013672 24.04882812 19.17578125 C27.91246426 19.21074628 29.70903668 19.19397555 33 17 C33.5 14.5 33.5 14.5 33 12 C29.20836973 9.47224649 26.19125969 9.77556965 21.8125 9.875 C20.68811523 9.88853516 20.68811523 9.88853516 19.54101562 9.90234375 C17.69387346 9.92587422 15.84689588 9.96174439 14 10 Z " fill="#424141" transform="translate(2280,87)"/>
<path d="M0 0 C-2.59416049 15.86023324 -7.19892771 29.91721205 -13 45 C-22.57 45 -32.14 45 -42 45 C-39.76833527 38.30500582 -39.76833527 38.30500582 -38.484375 35.1796875 C-33.95706911 23.96535603 -30.31349893 12.62758965 -27 1 C-17.97137786 -0.01813713 -9.07099703 -0.10243284 0 0 Z " fill="#F9C02C" transform="translate(412,244)"/>
<path d="M0 0 C4.6297606 3.00578303 9.02498183 6.22853488 13.375 9.625 C14.01566406 10.11484375 14.65632813 10.6046875 15.31640625 11.109375 C16.91644249 12.35801735 18.46348863 13.67396964 20 15 C20 15.66 20 16.32 20 17 C10.75861433 22.2886783 1.45966964 27.41842104 -8.125 32.0625 C-8.89303955 32.44398193 -9.6610791 32.82546387 -10.45239258 33.21850586 C-15.36504276 35.55478197 -19.51212127 37.09510085 -25 37 C-27.53187545 35.32841113 -29.16037198 34.01850519 -31.1875 31.875 C-31.9290332 31.14410156 -31.9290332 31.14410156 -32.68554688 30.3984375 C-34.14539883 28.95204926 -35.57310815 27.47882379 -37 26 C-37.95239489 25.04224572 -38.90668998 24.08637552 -39.86328125 23.1328125 C-40.56839844 22.42898438 -41.27351563 21.72515625 -42 21 C-41.16082031 20.76667969 -40.32164062 20.53335937 -39.45703125 20.29296875 C-25.96141197 16.19944222 -12.77067466 9.79984465 -1 2 C-0.67 1.34 -0.34 0.68 0 0 Z " fill="#8FD4F3" transform="translate(300,366)"/>
<path d="M0 0 C8.27411864 8.22971371 15.89376095 16.50562527 22.6875 26 C23.21674072 26.72993164 23.74598145 27.45986328 24.29125977 28.21191406 C24.77651123 28.90510742 25.2617627 29.59830078 25.76171875 30.3125 C26.410802 31.23482422 26.410802 31.23482422 27.07299805 32.17578125 C28 34 28 34 28 38 C27.43490723 38.2673999 26.86981445 38.5347998 26.28759766 38.81030273 C23.73329232 40.01914442 21.17914433 41.22831817 18.625 42.4375 C17.73554688 42.85837891 16.84609375 43.27925781 15.9296875 43.71289062 C15.07890625 44.11572266 14.228125 44.51855469 13.3515625 44.93359375 C12.56604004 45.30540771 11.78051758 45.67722168 10.97119141 46.06030273 C9.641371 46.69424858 8.31766752 47.34116624 7 48 C6.47921875 46.8759375 5.9584375 45.751875 5.421875 44.59375 C2.87484373 39.50864012 -0.36027725 35.05128723 -3.75 30.5 C-4.33265625 29.69691406 -4.9153125 28.89382812 -5.515625 28.06640625 C-9.5860499 22.55883572 -14.0294366 17.70758781 -19 13 C-17.81070529 9.43211587 -17.16026729 9.24014393 -13.96484375 7.51953125 C-13.15595703 7.07802734 -12.34707031 6.63652344 -11.51367188 6.18164062 C-10.66353516 5.72982422 -9.81339844 5.27800781 -8.9375 4.8125 C-8.08349609 4.34908203 -7.22949219 3.88566406 -6.34960938 3.40820312 C-4.23747273 2.26363746 -2.12098933 1.12805116 0 0 Z " fill="#8ED3F2" transform="translate(354,60)"/>
<path d="M0 0 C0.89397491 -0.0033284 1.78794983 -0.0066568 2.70901489 -0.01008606 C4.58302296 -0.01511661 6.45703987 -0.01749559 8.33105469 -0.01733398 C11.20782839 -0.01954085 14.08423045 -0.03779222 16.9609375 -0.05664062 C18.78645703 -0.05957123 20.61197836 -0.06155825 22.4375 -0.0625 C23.29890594 -0.06968552 24.16031189 -0.07687103 25.04782104 -0.08427429 C31.09146178 -0.06088197 31.09146178 -0.06088197 33.3203125 2.16796875 C31.04989465 3.79355194 28.77899661 5.41845677 26.5078125 7.04296875 C25.86521484 7.50316406 25.22261719 7.96335937 24.56054688 8.4375 C23.93857422 8.88222656 23.31660156 9.32695312 22.67578125 9.78515625 C22.10496826 10.19362793 21.53415527 10.60209961 20.94604492 11.02294922 C16.95468225 13.83410569 15.14033065 14.38926303 10.2734375 14.2578125 C9.04713623 14.23557617 7.82083496 14.21333984 6.55737305 14.19042969 C5.24164307 14.16239258 3.92591309 14.13435547 2.5703125 14.10546875 C-15.54102179 13.8761804 -32.83824117 15.82784134 -50.37890625 20.3984375 C-53.6796875 21.16796875 -53.6796875 21.16796875 -57.6796875 21.16796875 C-56.54497282 17.76382472 -55.50742763 16.92520227 -52.8046875 14.66796875 C-49.85390426 12.19524963 -49.85390426 12.19524963 -47.12109375 9.4921875 C-44.92246631 7.47231026 -42.5684343 7.48894062 -39.6796875 7.16796875 C-39.6796875 6.50796875 -39.6796875 5.84796875 -39.6796875 5.16796875 C-36.18037163 4.51839244 -32.68012038 3.87399617 -29.1796875 3.23046875 C-28.19742188 3.04806641 -27.21515625 2.86566406 -26.203125 2.67773438 C-25.23632812 2.50048828 -24.26953125 2.32324219 -23.2734375 2.140625 C-21.95375977 1.89711304 -21.95375977 1.89711304 -20.60742188 1.64868164 C-13.67337222 0.51016065 -7.01710631 0.00919482 0 0 Z " fill="#F8BF2C" transform="translate(196.6796875,-0.16796875)"/>
<path d="M0 0 C4.29 0 8.58 0 13 0 C13 23.43 13 46.86 13 71 C8.71 71 4.42 71 0 71 C0 47.57 0 24.14 0 0 Z " fill="#424141" transform="translate(2124,344)"/>
<path d="M0 0 C4.29 0 8.58 0 13 0 C13 23.43 13 46.86 13 71 C8.71 71 4.42 71 0 71 C0 47.57 0 24.14 0 0 Z " fill="#424141" transform="translate(1913,344)"/>
</svg>
